<svg width="29" height="31" viewBox="0 0 29 31" fill="none" xmlns="http://www.w3.org/2000/svg">
<mask id="mask0_401_1245" style="mask-type:alpha" maskUnits="userSpaceOnUse" x="0" y="0" width="29" height="31">
<path d="M9.39415 26.748C9.39415 28.7493 7.77184 30.3716 5.77062 30.3716C3.7694 30.3716 2.14709 28.7493 2.14709 26.748C2.14709 24.7468 3.7694 23.1245 5.77062 23.1245C7.77184 23.1245 9.39415 24.7468 9.39415 26.748Z" fill="#C4C4C4"/>
<path d="M26.8531 26.748C26.8531 28.7493 25.2308 30.3716 23.2296 30.3716C21.2284 30.3716 19.6061 28.7493 19.6061 26.748C19.6061 24.7468 21.2284 23.1245 23.2296 23.1245C25.2308 23.1245 26.8531 24.7468 26.8531 26.748Z" fill="#C4C4C4"/>
<path fill-rule="evenodd" clip-rule="evenodd" d="M25.6913 24.0891C25.9382 24.3178 25.9094 24.7042 25.6508 24.9196C24.2802 26.0612 22.5174 26.748 20.5941 26.748H20.2649C19.901 26.748 19.5998 26.4504 19.6652 26.0924C19.9737 24.4042 21.4522 23.1245 23.2296 23.1245C24.18 23.1245 25.045 23.4904 25.6913 24.0891ZM27.5987 22.5115C27.3986 22.8926 26.8844 22.9263 26.5504 22.655C25.644 21.9187 24.4883 21.4775 23.2296 21.4775C20.5414 21.4775 18.3233 23.4899 17.9996 26.0905C17.9547 26.4515 17.664 26.748 17.3002 26.748H11.7C11.3361 26.748 11.0455 26.4515 11.0006 26.0905C10.6769 23.4899 8.45876 21.4775 5.77059 21.4775C4.5118 21.4775 3.35608 21.9187 2.44969 22.6551C2.11563 22.9264 1.60145 22.8927 1.4014 22.5116C0.825709 21.415 0.5 20.1666 0.5 18.8421V17.1949C0.5 16.8311 0.794965 16.5361 1.15882 16.5361H27.8412C28.205 16.5361 28.5 16.8311 28.5 17.1949V18.8421C28.5 20.1665 28.1743 21.4149 27.5987 22.5115ZM28.5 14.2302C28.5 14.5941 28.205 14.889 27.8412 14.889H1.15882C0.794965 14.889 0.5 14.5941 0.5 14.2302V10.2773C0.5 9.91346 0.794965 9.6185 1.15882 9.6185H27.8412C28.205 9.6185 28.5 9.91346 28.5 10.2773V14.2302ZM8.40588 0.39502C4.383 0.39502 1.06191 3.3997 0.564369 7.2873C0.516836 7.65871 0.818678 7.97144 1.19312 7.97144H27.8069C28.1813 7.97144 28.4832 7.65871 28.4356 7.2873C27.9381 3.3997 24.617 0.39502 20.5941 0.39502H8.40588ZM5.77059 23.1245C7.54795 23.1245 9.02644 24.4042 9.33496 26.0924C9.40037 26.4504 9.09914 26.748 8.73528 26.748H8.40588C6.48268 26.748 4.71987 26.0613 3.34928 24.9197C3.09074 24.7043 3.06193 24.3178 3.30878 24.0892C3.95509 23.4905 4.8201 23.1245 5.77059 23.1245Z" fill="#C4C4C4"/>
</mask>
<g mask="url(#mask0_401_1245)">
<rect x="-1.14709" y="-1.91064" width="33.6" height="10.8706" fill="url(#paint0_linear_401_1245)"/>
<rect x="-1.14709" y="15.8774" width="33.6" height="16.4706" fill="#FFA833"/>
<rect x="-1.14709" y="8.95996" width="33.6" height="7.24706" rx="3.62353" fill="#F17228"/>
<rect x="-22.5586" y="23.1245" width="31.9529" height="7.24706" fill="#F58D00"/>
<rect x="19.6061" y="23.1245" width="31.9529" height="7.24706" fill="#F58D00"/>
<ellipse cx="8.61249" cy="3.20646" rx="1" ry="0.5" transform="rotate(-20.8548 8.61249 3.20646)" fill="white"/>
<ellipse cx="14.5" cy="2.8833" rx="1" ry="0.5" fill="white"/>
<ellipse cx="19.6176" cy="3.29555" rx="1" ry="0.5" transform="rotate(28.1155 19.6176 3.29555)" fill="white"/>
</g>
<defs>
<linearGradient id="paint0_linear_401_1245" x1="15.5" y1="-0.116699" x2="15.5" y2="17.3833" gradientUnits="userSpaceOnUse">
<stop stop-color="#FFD16D"/>
<stop offset="1" stop-color="#FF7A00"/>
</linearGradient>
</defs>
</svg>
